<svg width="50" height="53" viewBox="0 0 50 53" fill="none" xmlns="http://www.w3.org/2000/svg">
<rect width="50" height="52.0323" rx="10" fill="#FFF5CC"/>
<path d="M36.6141 33.7592C36.6141 33.9645 36.5325 34.1615 36.3873 34.3067C36.2421 34.4519 36.0452 34.5335 35.8398 34.5335H14.1597C13.9543 34.5335 13.7574 34.4519 13.6122 34.3067C13.467 34.1615 13.3854 33.9645 13.3854 33.7592C13.3854 33.5538 13.467 33.3569 13.6122 33.2117C13.7574 33.0665 13.9543 32.9849 14.1597 32.9849H35.8398C36.0452 32.9849 36.2421 33.0665 36.3873 33.2117C36.5325 33.3569 36.6141 33.5538 36.6141 33.7592ZM14.1887 23.1301C14.1426 22.9677 14.1509 22.7948 14.2122 22.6375C14.2736 22.4803 14.3846 22.3474 14.5284 22.259L24.5942 16.0647C24.7162 15.9897 24.8566 15.95 24.9997 15.95C25.1429 15.95 25.2833 15.9897 25.4053 16.0647L35.471 22.259C35.6149 22.3472 35.726 22.4801 35.7875 22.6372C35.8489 22.7944 35.8573 22.9674 35.8114 23.1298C35.7655 23.2922 35.6678 23.4351 35.5331 23.5369C35.3985 23.6386 35.2343 23.6936 35.0655 23.6934H32.7426V29.8877H34.2912C34.4966 29.8877 34.6935 29.9693 34.8387 30.1145C34.9839 30.2597 35.0655 30.4567 35.0655 30.662C35.0655 30.8674 34.9839 31.0643 34.8387 31.2095C34.6935 31.3547 34.4966 31.4363 34.2912 31.4363H15.7082C15.5029 31.4363 15.3059 31.3547 15.1607 31.2095C15.0155 31.0643 14.934 30.8674 14.934 30.662C14.934 30.4567 15.0155 30.2597 15.1607 30.1145C15.3059 29.9693 15.5029 29.8877 15.7082 29.8877H17.2568V23.6934H14.934C14.7653 23.6935 14.6013 23.6385 14.4668 23.5368C14.3323 23.4351 14.2346 23.2923 14.1887 23.1301ZM26.5483 29.1134C26.5483 29.3188 26.6299 29.5157 26.7751 29.6609C26.9203 29.8062 27.1172 29.8877 27.3226 29.8877C27.528 29.8877 27.7249 29.8062 27.8701 29.6609C28.0153 29.5157 28.0969 29.3188 28.0969 29.1134V24.4677C28.0969 24.2623 28.0153 24.0654 27.8701 23.9202C27.7249 23.775 27.528 23.6934 27.3226 23.6934C27.1172 23.6934 26.9203 23.775 26.7751 23.9202C26.6299 24.0654 26.5483 24.2623 26.5483 24.4677V29.1134ZM21.9026 29.1134C21.9026 29.3188 21.9841 29.5157 22.1294 29.6609C22.2746 29.8062 22.4715 29.8877 22.6769 29.8877C22.8822 29.8877 23.0792 29.8062 23.2244 29.6609C23.3696 29.5157 23.4512 29.3188 23.4512 29.1134V24.4677C23.4512 24.2623 23.3696 24.0654 23.2244 23.9202C23.0792 23.775 22.8822 23.6934 22.6769 23.6934C22.4715 23.6934 22.2746 23.775 22.1294 23.9202C21.9841 24.0654 21.9026 24.2623 21.9026 24.4677V29.1134Z" fill="#D2AD1A"/>
</svg>
