<svg width="50" height="53" viewBox="0 0 50 53" fill="none" xmlns="http://www.w3.org/2000/svg">
<rect width="50" height="52.0323" rx="10" fill="#EDF7FA"/>
<g clip-path="url(#clip0_3001_317)">
<path d="M25.0003 14.4536L25.3703 13.7152C25.2554 13.6577 25.1287 13.6277 25.0003 13.6277C24.8718 13.6277 24.7451 13.6577 24.6302 13.7152L25.0003 14.4536ZM15.0893 19.409L14.7193 18.6707C14.5823 18.7393 14.4671 18.8447 14.3866 18.9751C14.3061 19.1055 14.2634 19.2558 14.2634 19.409H15.0893ZM34.9112 19.409H35.7371C35.7371 19.2558 35.6944 19.1055 35.6139 18.9751C35.5334 18.8447 35.4182 18.7393 35.2812 18.6707L34.9112 19.409ZM21.6966 30.9718V30.1459H20.8707V30.9718H21.6966ZM28.3039 30.9718H29.1298V30.1459H28.3039V30.9718ZM12.6116 38.405H37.3889V36.7531H12.6116V38.405ZM24.6302 13.7152L14.7193 18.6707L15.4593 20.1474L25.3703 15.1919L24.6302 13.7152ZM35.2812 18.6707L25.3703 13.7152L24.6302 15.1919L34.5412 20.1474L35.2812 18.6707ZM24.1743 18.5831V22.7127H25.8262V18.5831H24.1743ZM24.1743 22.7127V26.8422H25.8262V22.7127H24.1743ZM20.8707 23.5386H25.0003V21.8868H20.8707V23.5386ZM25.0003 23.5386H29.1298V21.8868H25.0003V23.5386ZM14.2634 19.409V37.579H15.9152V19.409H14.2634ZM34.0853 19.409V37.579H35.7371V19.409H34.0853ZM22.5225 37.579V30.9718H20.8707V37.579H22.5225ZM21.6966 31.7977H28.3039V30.1459H21.6966V31.7977ZM27.478 30.9718V37.579H29.1298V30.9718H27.478Z" fill="#4FA7BF"/>
</g>
<defs>
<clipPath id="clip0_3001_317">
<rect width="24.7773" height="24.7773" fill="white" transform="translate(12.6116 13.6277)"/>
</clipPath>
</defs>
</svg>
