<svg width="34" height="33" viewBox="0 0 34 33" fill="none" xmlns="http://www.w3.org/2000/svg">
<path d="M32.1538 0C32.6027 0 33.0331 0.175411 33.3505 0.487645C33.6679 0.799879 33.8462 1.22336 33.8462 1.66493V24.9739C33.8462 25.4154 33.6679 25.8389 33.3505 26.1512C33.0331 26.4634 32.6027 26.6388 32.1538 26.6388H7.53923L0 32.466V1.66493C0 1.22336 0.178296 0.799879 0.495665 0.487645C0.813035 0.175411 1.24348 0 1.69231 0H32.1538ZM14.41 7.34565C11.3858 8.63597 9.30769 11.2466 9.30769 14.1602C9.30769 15.8168 9.77646 16.8391 10.648 17.7498C11.1963 18.3225 12.0645 18.7304 12.9732 18.7304C13.3621 18.7304 13.7473 18.655 14.1066 18.5086C14.4659 18.3622 14.7923 18.1476 15.0674 17.877C15.3424 17.6065 15.5605 17.2853 15.7093 16.9318C15.8582 16.5783 15.9348 16.1994 15.9348 15.8168C15.931 15.0843 15.6485 14.3797 15.1429 13.842C14.6373 13.3042 13.9454 12.9723 13.2034 12.9115C12.9335 12.8851 12.6613 12.8907 12.3928 12.9281V12.775C12.4029 12.0424 12.562 9.878 15.1665 8.49112L14.41 7.34565ZM22.8715 7.34565C19.8474 8.63597 17.7692 11.2466 17.7692 14.1602C17.7692 15.8168 18.238 16.8391 19.1095 17.7498C19.6578 18.3225 20.526 18.7304 21.4348 18.7304C22.2202 18.7304 22.9735 18.4234 23.5289 17.877C24.0843 17.3306 24.3963 16.5895 24.3963 15.8168C24.3925 15.0843 24.11 14.3797 23.6045 13.842C23.0989 13.3042 22.4069 12.9723 21.6649 12.9115C21.395 12.8851 21.1229 12.8907 20.8543 12.9281V12.775C20.8645 12.0424 21.0235 9.878 23.628 8.49112L22.8715 7.34565Z" fill="#B91C1C"/>
</svg>
